# Blender v2.80 (sub 75) OBJ File: ''
# www.blender.org
mtllib 5 cubes.mtl
o Cube.003_Cube.000
v -9.338981 -0.999997 -4.043246
v -9.338981 1.000003 -4.043246
v -9.338981 1.000003 -6.043246
v -9.338981 -0.999997 -6.043246
v -7.338981 1.000003 -6.043246
v -7.338981 -0.999997 -6.043246
v -7.338981 1.000003 -4.043246
v -7.338981 -0.999997 -4.043246
vt 0.375000 0.000000
vt 0.625000 0.000000
vt 0.625000 0.250000
vt 0.375000 0.250000
vt 0.625000 0.500000
vt 0.375000 0.500000
vt 0.625000 0.750000
vt 0.375000 0.750000
vt 0.625000 1.000000
vt 0.375000 1.000000
vt 0.125000 0.500000
vt 0.125000 0.750000
vt 0.875000 0.500000
vt 0.875000 0.750000
vn -1.0000 0.0000 0.0000
vn 0.0000 0.0000 -1.0000
vn 1.0000 0.0000 0.0000
vn 0.0000 0.0000 1.0000
vn 0.0000 -1.0000 -0.0000
vn 0.0000 1.0000 0.0000
usemtl Default_OBJ
s off
f 1/1/1 2/2/1 3/3/1 4/4/1
f 4/4/2 3/3/2 5/5/2 6/6/2
f 6/6/3 5/5/3 7/7/3 8/8/3
f 8/8/4 7/7/4 2/9/4 1/10/4
f 4/11/5 6/6/5 8/8/5 1/12/5
f 5/5/6 3/13/6 2/14/6 7/7/6
o Cube.001_Cube.000
v 2.050791 -1.000001 -5.484816
v 2.050791 0.999999 -5.484815
v 1.403627 1.000001 -7.377216
v 1.403627 -0.999999 -7.377216
v 3.296028 1.000001 -8.024379
v 3.296028 -0.999999 -8.024379
v 3.943191 1.000000 -6.131979
v 3.943191 -1.000000 -6.131979
vt 0.375000 0.000000
vt 0.625000 0.000000
vt 0.625000 0.250000
vt 0.375000 0.250000
vt 0.625000 0.500000
vt 0.375000 0.500000
vt 0.625000 0.750000
vt 0.375000 0.750000
vt 0.625000 1.000000
vt 0.375000 1.000000
vt 0.125000 0.500000
vt 0.125000 0.750000
vt 0.875000 0.500000
vt 0.875000 0.750000
vn -0.9462 -0.0000 0.3236
vn -0.3236 0.0000 -0.9462
vn 0.9462 0.0000 -0.3236
vn 0.3236 -0.0000 0.9462
vn 0.0000 -1.0000 -0.0000
vn -0.0000 1.0000 0.0000
usemtl Default_OBJ
s off
f 9/15/7 10/16/7 11/17/7 12/18/7
f 12/18/8 11/17/8 13/19/8 14/20/8
f 14/20/9 13/19/9 15/21/9 16/22/9
f 16/22/10 15/21/10 10/23/10 9/24/10
f 12/25/11 14/20/11 16/22/11 9/26/11
f 13/19/12 11/27/12 10/28/12 15/21/12
o Cube.002_Cube.000
v -8.440861 -1.000001 2.457888
v -8.440861 0.999999 2.457888
v -6.928442 0.999998 3.766547
v -6.928442 -1.000002 3.766547
v -8.237101 0.999998 5.278965
v -8.237101 -1.000002 5.278966
v -9.749519 0.999997 3.970307
v -9.749519 -1.000003 3.970307
vt 0.375000 0.000000
vt 0.625000 0.000000
vt 0.625000 0.250000
vt 0.375000 0.250000
vt 0.625000 0.500000
vt 0.375000 0.500000
vt 0.625000 0.750000
vt 0.375000 0.750000
vt 0.625000 1.000000
vt 0.375000 1.000000
vt 0.125000 0.500000
vt 0.125000 0.750000
vt 0.875000 0.500000
vt 0.875000 0.750000
vn 0.6543 0.0000 -0.7562
vn 0.7562 -0.0000 0.6543
vn -0.6543 0.0000 0.7562
vn -0.7562 0.0000 -0.6543
vn 0.0000 -1.0000 -0.0000
vn -0.0000 1.0000 0.0000
usemtl Default_OBJ
s off
f 17/29/13 18/30/13 19/31/13 20/32/13
f 20/32/14 19/31/14 21/33/14 22/34/14
f 22/34/15 21/33/15 23/35/15 24/36/15
f 24/36/16 23/35/16 18/37/16 17/38/16
f 20/39/17 22/34/17 24/36/17 17/40/17
f 21/33/18 19/41/18 18/42/18 23/35/18
o Cube.003_Cube.004
v -9.338981 -0.999998 -4.043246
v -9.338981 1.000002 -4.043246
v -9.338981 1.000002 -6.043246
v -9.338981 -0.999998 -6.043246
v -7.338981 1.000002 -6.043246
v -7.338981 -0.999998 -6.043246
v -7.338981 1.000002 -4.043246
v -7.338981 -0.999998 -4.043246
vt 0.375000 0.000000
vt 0.625000 0.000000
vt 0.625000 0.250000
vt 0.375000 0.250000
vt 0.625000 0.500000
vt 0.375000 0.500000
vt 0.625000 0.750000
vt 0.375000 0.750000
vt 0.625000 1.000000
vt 0.375000 1.000000
vt 0.125000 0.500000
vt 0.125000 0.750000
vt 0.875000 0.500000
vt 0.875000 0.750000
vn -1.0000 0.0000 0.0000
vn 0.0000 0.0000 -1.0000
vn 1.0000 0.0000 0.0000
vn 0.0000 0.0000 1.0000
vn 0.0000 -1.0000 -0.0000
vn 0.0000 1.0000 0.0000
usemtl Default_OBJ
s off
f 25/43/19 26/44/19 27/45/19 28/46/19
f 28/46/20 27/45/20 29/47/20 30/48/20
f 30/48/21 29/47/21 31/49/21 32/50/21
f 32/50/22 31/49/22 26/51/22 25/52/22
f 28/53/23 30/48/23 32/50/23 25/54/23
f 29/47/24 27/55/24 26/56/24 31/49/24
o Cube.001_Cube.002
v 2.531758 -1.000002 3.308020
v 2.531758 0.999998 3.308020
v 1.884594 1.000000 1.415620
v 1.884594 -1.000000 1.415620
v 3.776995 1.000000 0.768457
v 3.776995 -1.000000 0.768457
v 4.424158 0.999999 2.660857
v 4.424158 -1.000001 2.660857
vt 0.375000 0.000000
vt 0.625000 0.000000
vt 0.625000 0.250000
vt 0.375000 0.250000
vt 0.625000 0.500000
vt 0.375000 0.500000
vt 0.625000 0.750000
vt 0.375000 0.750000
vt 0.625000 1.000000
vt 0.375000 1.000000
vt 0.125000 0.500000
vt 0.125000 0.750000
vt 0.875000 0.500000
vt 0.875000 0.750000
vn -0.9462 -0.0000 0.3236
vn -0.3236 0.0000 -0.9462
vn 0.9462 0.0000 -0.3236
vn 0.3236 -0.0000 0.9462
vn -0.0000 -1.0000 -0.0000
vn 0.0000 1.0000 0.0000
usemtl Default_OBJ
s off
f 33/57/25 34/58/25 35/59/25 36/60/25
f 36/60/26 35/59/26 37/61/26 38/62/26
f 38/62/27 37/61/27 39/63/27 40/64/27
f 40/64/28 39/63/28 34/65/28 33/66/28
f 36/67/29 38/62/29 40/64/29 33/68/29
f 37/61/30 35/69/30 34/70/30 39/63/30
o Cube.002_Cube.003
v -8.440861 -1.000001 2.457888
v -8.440861 0.999999 2.457888
v -6.928442 0.999999 3.766547
v -6.928442 -1.000001 3.766547
v -8.237101 0.999999 5.278965
v -8.237101 -1.000001 5.278966
v -9.749519 0.999998 3.970307
v -9.749519 -1.000002 3.970307
vt 0.375000 0.000000
vt 0.625000 0.000000
vt 0.625000 0.250000
vt 0.375000 0.250000
vt 0.625000 0.500000
vt 0.375000 0.500000
vt 0.625000 0.750000
vt 0.375000 0.750000
vt 0.625000 1.000000
vt 0.375000 1.000000
vt 0.125000 0.500000
vt 0.125000 0.750000
vt 0.875000 0.500000
vt 0.875000 0.750000
vn 0.6543 0.0000 -0.7562
vn 0.7562 -0.0000 0.6543
vn -0.6543 0.0000 0.7562
vn -0.7562 0.0000 -0.6543
vn 0.0000 -1.0000 0.0000
vn -0.0000 1.0000 -0.0000
usemtl Default_OBJ
s off
f 41/71/31 42/72/31 43/73/31 44/74/31
f 44/74/32 43/73/32 45/75/32 46/76/32
f 46/76/33 45/75/33 47/77/33 48/78/33
f 48/78/34 47/77/34 42/79/34 41/80/34
f 44/81/35 46/76/35 48/78/35 41/82/35
f 45/75/36 43/83/36 42/84/36 47/77/36
o Cube_Cube.001
v 1.188042 -3.107376 1.214588
v 0.901719 -1.417016 2.244493
v 0.260507 -0.511715 0.580378
v 0.546830 -2.202075 -0.449526
v 2.133170 0.056715 0.168043
v 2.419492 -1.633645 -0.861862
v 2.774382 -0.848586 1.832158
v 3.060705 -2.538946 0.802253
vt 0.375000 0.000000
vt 0.625000 0.000000
vt 0.625000 0.250000
vt 0.375000 0.250000
vt 0.625000 0.500000
vt 0.375000 0.500000
vt 0.625000 0.750000
vt 0.375000 0.750000
vt 0.625000 1.000000
vt 0.375000 1.000000
vt 0.125000 0.500000
vt 0.125000 0.750000
vt 0.875000 0.500000
vt 0.875000 0.750000
vn -0.9363 -0.2842 0.2062
vn -0.3206 0.4527 -0.8321
vn 0.9363 0.2842 -0.2062
vn 0.3206 -0.4527 0.8321
vn 0.1432 -0.8452 -0.5150
vn -0.1432 0.8452 0.5150
usemtl Default_OBJ
s off
f 49/85/37 50/86/37 51/87/37 52/88/37
f 52/88/38 51/87/38 53/89/38 54/90/38
f 54/90/39 53/89/39 55/91/39 56/92/39
f 56/92/40 55/91/40 50/93/40 49/94/40
f 52/95/41 54/90/41 56/92/41 49/96/41
f 53/89/42 51/97/42 50/98/42 55/91/42
o Cube.003_Cube.001
v -9.338981 -0.999997 -4.043246
v -9.338981 1.000003 -4.043246
v -9.338981 1.000003 -6.043246
v -9.338981 -0.999997 -6.043246
v -7.338981 1.000003 -6.043246
v -7.338981 -0.999997 -6.043246
v -7.338981 1.000003 -4.043246
v -7.338981 -0.999997 -4.043246
vt 0.375000 0.000000
vt 0.625000 0.000000
vt 0.625000 0.250000
vt 0.375000 0.250000
vt 0.625000 0.500000
vt 0.375000 0.500000
vt 0.625000 0.750000
vt 0.375000 0.750000
vt 0.625000 1.000000
vt 0.375000 1.000000
vt 0.125000 0.500000
vt 0.125000 0.750000
vt 0.875000 0.500000
vt 0.875000 0.750000
vn -1.0000 0.0000 0.0000
vn 0.0000 0.0000 -1.0000
vn 1.0000 0.0000 0.0000
vn 0.0000 0.0000 1.0000
vn 0.0000 -1.0000 -0.0000
vn 0.0000 1.0000 0.0000
usemtl Default_OBJ.001
s off
f 57/99/43 58/100/43 59/101/43 60/102/43
f 60/102/44 59/101/44 61/103/44 62/104/44
f 62/104/45 61/103/45 63/105/45 64/106/45
f 64/106/46 63/105/46 58/107/46 57/108/46
f 60/109/47 62/104/47 64/106/47 57/110/47
f 61/103/48 59/111/48 58/112/48 63/105/48
o Cube.001_Cube.001
v 2.050791 -1.000001 -5.484816
v 2.050791 0.999999 -5.484815
v 1.403627 1.000001 -7.377216
v 1.403627 -0.999999 -7.377216
v 3.296028 1.000001 -8.024379
v 3.296028 -0.999999 -8.024379
v 3.943191 1.000000 -6.131979
v 3.943191 -1.000000 -6.131979
vt 0.375000 0.000000
vt 0.625000 0.000000
vt 0.625000 0.250000
vt 0.375000 0.250000
vt 0.625000 0.500000
vt 0.375000 0.500000
vt 0.625000 0.750000
vt 0.375000 0.750000
vt 0.625000 1.000000
vt 0.375000 1.000000
vt 0.125000 0.500000
vt 0.125000 0.750000
vt 0.875000 0.500000
vt 0.875000 0.750000
vn -0.9462 -0.0000 0.3236
vn -0.3236 0.0000 -0.9462
vn 0.9462 0.0000 -0.3236
vn 0.3236 -0.0000 0.9462
vn 0.0000 -1.0000 -0.0000
vn -0.0000 1.0000 0.0000
usemtl Default_OBJ.001
s off
f 65/113/49 66/114/49 67/115/49 68/116/49
f 68/116/50 67/115/50 69/117/50 70/118/50
f 70/118/51 69/117/51 71/119/51 72/120/51
f 72/120/52 71/119/52 66/121/52 65/122/52
f 68/123/53 70/118/53 72/120/53 65/124/53
f 69/117/54 67/125/54 66/126/54 71/119/54
o Cube.002_Cube.001
v -8.440861 -1.000001 2.457888
v -8.440861 0.999999 2.457888
v -6.928442 0.999998 3.766547
v -6.928442 -1.000002 3.766547
v -8.237101 0.999998 5.278965
v -8.237101 -1.000002 5.278966
v -9.749519 0.999997 3.970307
v -9.749519 -1.000003 3.970307
vt 0.375000 0.000000
vt 0.625000 0.000000
vt 0.625000 0.250000
vt 0.375000 0.250000
vt 0.625000 0.500000
vt 0.375000 0.500000
vt 0.625000 0.750000
vt 0.375000 0.750000
vt 0.625000 1.000000
vt 0.375000 1.000000
vt 0.125000 0.500000
vt 0.125000 0.750000
vt 0.875000 0.500000
vt 0.875000 0.750000
vn 0.6543 0.0000 -0.7562
vn 0.7562 -0.0000 0.6543
vn -0.6543 0.0000 0.7562
vn -0.7562 0.0000 -0.6543
vn 0.0000 -1.0000 -0.0000
vn -0.0000 1.0000 0.0000
usemtl Default_OBJ.001
s off
f 73/127/55 74/128/55 75/129/55 76/130/55
f 76/130/56 75/129/56 77/131/56 78/132/56
f 78/132/57 77/131/57 79/133/57 80/134/57
f 80/134/58 79/133/58 74/135/58 73/136/58
f 76/137/59 78/132/59 80/134/59 73/138/59
f 77/131/60 75/139/60 74/140/60 79/133/60
o Cube.003_Cube.002
v -9.338981 -0.999998 -4.043246
v -9.338981 1.000002 -4.043246
v -9.338981 1.000002 -6.043246
v -9.338981 -0.999998 -6.043246
v -7.338981 1.000002 -6.043246
v -7.338981 -0.999998 -6.043246
v -7.338981 1.000002 -4.043246
v -7.338981 -0.999998 -4.043246
vt 0.375000 0.000000
vt 0.625000 0.000000
vt 0.625000 0.250000
vt 0.375000 0.250000
vt 0.625000 0.500000
vt 0.375000 0.500000
vt 0.625000 0.750000
vt 0.375000 0.750000
vt 0.625000 1.000000
vt 0.375000 1.000000
vt 0.125000 0.500000
vt 0.125000 0.750000
vt 0.875000 0.500000
vt 0.875000 0.750000
vn -1.0000 0.0000 0.0000
vn 0.0000 0.0000 -1.0000
vn 1.0000 0.0000 0.0000
vn 0.0000 0.0000 1.0000
vn 0.0000 -1.0000 -0.0000
vn 0.0000 1.0000 0.0000
usemtl Default_OBJ.001
s off
f 81/141/61 82/142/61 83/143/61 84/144/61
f 84/144/62 83/143/62 85/145/62 86/146/62
f 86/146/63 85/145/63 87/147/63 88/148/63
f 88/148/64 87/147/64 82/149/64 81/150/64
f 84/151/65 86/146/65 88/148/65 81/152/65
f 85/145/66 83/153/66 82/154/66 87/147/66
o Cube.001_Cube.003
v 2.531758 -1.000002 3.308020
v 2.531758 0.999998 3.308020
v 1.884594 1.000000 1.415620
v 1.884594 -1.000000 1.415620
v 3.776995 1.000000 0.768457
v 3.776995 -1.000000 0.768457
v 4.424158 0.999999 2.660857
v 4.424158 -1.000001 2.660857
vt 0.375000 0.000000
vt 0.625000 0.000000
vt 0.625000 0.250000
vt 0.375000 0.250000
vt 0.625000 0.500000
vt 0.375000 0.500000
vt 0.625000 0.750000
vt 0.375000 0.750000
vt 0.625000 1.000000
vt 0.375000 1.000000
vt 0.125000 0.500000
vt 0.125000 0.750000
vt 0.875000 0.500000
vt 0.875000 0.750000
vn -0.9462 -0.0000 0.3236
vn -0.3236 0.0000 -0.9462
vn 0.9462 0.0000 -0.3236
vn 0.3236 -0.0000 0.9462
vn -0.0000 -1.0000 -0.0000
vn 0.0000 1.0000 0.0000
usemtl Default_OBJ.001
s off
f 89/155/67 90/156/67 91/157/67 92/158/67
f 92/158/68 91/157/68 93/159/68 94/160/68
f 94/160/69 93/159/69 95/161/69 96/162/69
f 96/162/70 95/161/70 90/163/70 89/164/70
f 92/165/71 94/160/71 96/162/71 89/166/71
f 93/159/72 91/167/72 90/168/72 95/161/72
o Cube.002_Cube.002
v -8.440861 -1.000001 2.457888
v -8.440861 0.999999 2.457888
v -6.928442 0.999999 3.766547
v -6.928442 -1.000001 3.766547
v -8.237101 0.999999 5.278965
v -8.237101 -1.000001 5.278966
v -9.749519 0.999998 3.970307
v -9.749519 -1.000002 3.970307
vt 0.375000 0.000000
vt 0.625000 0.000000
vt 0.625000 0.250000
vt 0.375000 0.250000
vt 0.625000 0.500000
vt 0.375000 0.500000
vt 0.625000 0.750000
vt 0.375000 0.750000
vt 0.625000 1.000000
vt 0.375000 1.000000
vt 0.125000 0.500000
vt 0.125000 0.750000
vt 0.875000 0.500000
vt 0.875000 0.750000
vn 0.6543 0.0000 -0.7562
vn 0.7562 -0.0000 0.6543
vn -0.6543 0.0000 0.7562
vn -0.7562 0.0000 -0.6543
vn 0.0000 -1.0000 0.0000
vn -0.0000 1.0000 -0.0000
usemtl Default_OBJ.001
s off
f 97/169/73 98/170/73 99/171/73 100/172/73
f 100/172/74 99/171/74 101/173/74 102/174/74
f 102/174/75 101/173/75 103/175/75 104/176/75
f 104/176/76 103/175/76 98/177/76 97/178/76
f 100/179/77 102/174/77 104/176/77 97/180/77
f 101/173/78 99/181/78 98/182/78 103/175/78
