# Blender v2.80 (sub 75) OBJ File: ''
# www.blender.org
mtllib css.mtl
o csgo
v 16.520000 13.000000 0.000002
v 18.521299 17.521299 0.000003
v 10.521800 18.521799 0.000003
v 8.500000 33.526501 0.000005
v 17.521799 27.520000 0.000004
v 19.521000 35.573002 0.000006
v 4.526000 38.521000 0.000006
v 7.578100 14.578600 0.000002
v 16.520000 12.999997 20.000002
v 18.521299 17.521296 20.000002
v 10.521800 18.521795 20.000004
v 8.500000 33.526497 20.000006
v 17.521799 27.519997 20.000004
v 19.521000 35.572998 20.000006
v 4.526000 38.520996 20.000006
v 7.578100 14.578597 20.000002
v 30.000000 15.573000 0.000003
v 29.520000 12.000000 0.000002
v 21.573000 17.521299 0.000003
v 23.000000 23.000000 0.000004
v 26.521799 21.521799 0.000004
v 29.573900 25.521799 0.000004
v 19.573000 22.570000 0.000004
v 22.577999 38.521000 0.000006
v 36.573898 30.000000 0.000005
v 32.520000 20.525999 0.000003
v 25.573400 19.000000 0.000003
v 30.000000 15.572997 20.000002
v 29.520000 11.999997 20.000002
v 21.573000 17.521296 20.000002
v 23.000000 22.999996 20.000004
v 26.521799 21.521795 20.000004
v 29.573900 25.521795 20.000004
v 19.573000 22.569996 20.000004
v 22.577999 38.520996 20.000006
v 36.573898 29.999996 20.000006
v 32.520000 20.525995 20.000004
v 25.573400 18.999996 20.000004
v 36.570000 15.578600 0.000003
v 36.577999 17.578600 0.000003
v 40.526501 17.521299 0.000003
v 40.578098 15.573400 0.000003
v 36.570000 15.578597 20.000002
v 36.577999 17.578596 20.000004
v 40.526501 17.521296 20.000002
v 40.578098 15.573397 20.000002
v 37.573002 24.000000 0.000004
v 37.521301 25.000000 0.000004
v 39.570000 24.521799 0.000004
v 40.000000 23.573400 0.000004
v 37.573002 23.999996 20.000004
v 37.521301 24.999996 20.000004
v 39.570000 24.521795 20.000004
v 40.000000 23.573397 20.000004
v 47.577999 14.521800 0.000002
v 47.500000 12.520000 0.000002
v 43.500000 13.570000 0.000002
v 41.526001 30.573900 0.000005
v 51.577999 30.573900 0.000005
v 51.521801 27.573900 0.000004
v 54.573002 28.000000 0.000005
v 54.526501 25.573400 0.000004
v 47.526501 25.578600 0.000004
v 47.578602 27.573400 0.000004
v 49.577999 27.521299 0.000004
v 50.000000 28.577999 0.000005
v 44.000000 28.573400 0.000005
v 45.573002 20.577999 0.000003
v 47.577999 14.521797 20.000002
v 47.500000 12.519998 20.000002
v 43.500000 13.569997 20.000002
v 41.526001 30.573896 20.000006
v 51.577999 30.573896 20.000006
v 51.521801 27.573896 20.000004
v 54.573002 27.999996 20.000004
v 54.526501 25.573397 20.000004
v 47.526501 25.578596 20.000004
v 47.578602 27.573397 20.000004
v 49.577999 27.521296 20.000004
v 50.000000 28.577995 20.000004
v 44.000000 28.573397 20.000004
v 45.573002 20.577995 20.000004
v 55.526501 15.573000 0.000003
v 52.000000 18.521799 0.000003
v 55.526501 22.521000 0.000004
v 57.521801 17.573900 0.000003
v 55.526501 15.572997 20.000002
v 52.000000 18.521795 20.000004
v 55.526501 22.520996 20.000004
v 57.521801 17.573896 20.000004
v 0.000000 -0.000010 60.000000
v 60.000000 -0.000010 60.000000
v 60.000000 0.000000 0.000000
v 0.000000 0.000000 0.000000
v 60.000000 59.999989 60.000011
v 60.000000 60.000000 0.000010
v 0.000000 59.999989 60.000011
v 0.000000 60.000000 0.000010
v 12.049050 13.789300 0.000002
v 6.052050 26.549801 0.000004
v 12.023500 37.047001 0.000006
v 18.521400 31.546501 0.000005
v 13.010900 30.523251 0.000005
v 9.510900 26.024151 0.000004
v 14.521549 18.021549 0.000003
v 17.520649 15.260650 0.000002
v 12.049050 13.789297 20.000002
v 6.052050 26.549797 20.000004
v 12.023500 37.046997 20.000006
v 18.521400 31.546497 20.000006
v 13.010900 30.523247 20.000006
v 9.510900 26.024147 20.000004
v 14.521549 18.021545 20.000004
v 17.520649 15.260647 20.000002
v 16.520000 12.999998 10.000002
v 18.521299 17.521297 10.000003
v 10.521800 18.521797 10.000003
v 8.500000 33.526501 10.000006
v 17.521799 27.519999 10.000005
v 19.521000 35.573002 10.000006
v 4.526000 38.521000 10.000007
v 7.578100 14.578598 10.000002
v 27.786701 17.286499 0.000003
v 29.760000 13.786500 0.000002
v 25.546501 14.760650 0.000002
v 22.286499 20.260651 0.000003
v 24.760899 22.260899 0.000004
v 28.047850 23.521799 0.000004
v 24.573450 24.045898 0.000004
v 21.075500 30.545500 0.000005
v 29.575949 34.260498 0.000006
v 34.546951 25.263000 0.000004
v 29.046700 19.763000 0.000003
v 27.786701 17.286495 20.000002
v 29.760000 13.786497 20.000002
v 25.546501 14.760647 20.000002
v 22.286499 20.260647 20.000004
v 24.760899 22.260895 20.000004
v 28.047850 23.521795 20.000004
v 24.573450 24.045895 20.000004
v 21.075500 30.545496 20.000006
v 29.575949 34.260494 20.000006
v 34.546951 25.262997 20.000004
v 29.046700 19.762997 20.000004
v 30.000000 15.572998 10.000003
v 29.520000 11.999998 10.000002
v 21.573000 17.521297 10.000003
v 23.000000 22.999998 10.000004
v 26.521799 21.521797 10.000004
v 29.573900 25.521797 10.000004
v 19.573000 22.569998 10.000004
v 22.577999 38.521000 10.000007
v 36.573898 29.999998 10.000005
v 32.520000 20.525997 10.000004
v 25.573400 18.999998 10.000003
v 38.574051 15.576000 0.000003
v 36.573997 16.578600 0.000003
v 38.552250 17.549950 0.000003
v 40.552299 16.547350 0.000003
v 38.574051 15.575997 20.000002
v 40.552299 16.547346 20.000002
v 38.552250 17.549946 20.000002
v 36.573997 16.578596 20.000002
v 36.570000 15.578598 10.000003
v 36.577999 17.578598 10.000003
v 40.526501 17.521297 10.000003
v 40.578098 15.573398 10.000003
v 38.786499 23.786701 0.000004
v 37.547150 24.500000 0.000004
v 38.545650 24.760899 0.000004
v 39.785000 24.047600 0.000004
v 38.786499 23.786697 20.000004
v 37.547150 24.499996 20.000004
v 38.545650 24.760895 20.000004
v 39.785000 24.047596 20.000004
v 37.573002 23.999998 10.000004
v 37.521301 24.999998 10.000004
v 39.570000 24.521797 10.000004
v 40.000000 23.573399 10.000004
v 46.575500 17.549900 0.000003
v 47.539001 13.520901 0.000002
v 45.500000 13.045000 0.000002
v 42.513000 22.071949 0.000004
v 46.552002 30.573900 0.000005
v 51.549900 29.073900 0.000005
v 53.047401 27.786949 0.000005
v 54.549751 26.786701 0.000004
v 51.026501 25.576000 0.000004
v 47.552551 26.576000 0.000004
v 48.578300 27.547350 0.000004
v 49.789001 28.049648 0.000005
v 47.000000 28.575699 0.000005
v 44.786499 24.575699 0.000004
v 46.575500 17.549896 20.000002
v 44.786499 24.575695 20.000004
v 47.000000 28.575695 20.000004
v 49.789001 28.049644 20.000004
v 48.578300 27.547346 20.000004
v 47.552551 26.575996 20.000004
v 51.026501 25.575996 20.000004
v 54.549751 26.786697 20.000004
v 53.047401 27.786945 20.000004
v 51.549900 29.073896 20.000004
v 46.552002 30.573896 20.000006
v 42.513000 22.071945 20.000004
v 45.500000 13.044997 20.000002
v 47.539001 13.520898 20.000002
v 47.577999 14.521798 10.000002
v 47.500000 12.519999 10.000002
v 43.500000 13.569998 10.000002
v 41.526001 30.573898 10.000005
v 51.577999 30.573898 10.000005
v 51.521801 27.573898 10.000005
v 54.573002 27.999998 10.000005
v 54.526501 25.573399 10.000004
v 47.526501 25.578598 10.000004
v 47.578602 27.573399 10.000005
v 49.577999 27.521297 10.000005
v 50.000000 28.577997 10.000005
v 44.000000 28.573399 10.000005
v 45.573002 20.577997 10.000004
v 56.524151 16.573450 0.000003
v 53.763252 17.047400 0.000003
v 53.763252 20.521400 0.000003
v 56.524151 20.047451 0.000003
v 56.524151 16.573446 20.000002
v 56.524151 20.047447 20.000004
v 53.763252 20.521397 20.000004
v 53.763252 17.047396 20.000002
v 55.526501 15.572998 10.000003
v 52.000000 18.521797 10.000003
v 55.526501 22.520998 10.000004
v 57.521801 17.573898 10.000003
v 0.000000 -0.000005 30.000000
v 30.000000 -0.000010 60.000000
v 60.000000 -0.000005 30.000000
v 30.000000 0.000000 0.000000
v 60.000000 29.999990 60.000004
v 60.000000 59.999996 30.000010
v 60.000000 30.000000 0.000005
v 30.000000 59.999989 60.000011
v 0.000000 59.999996 30.000010
v 30.000000 60.000000 0.000010
v 0.000000 29.999990 60.000004
v 0.000000 30.000000 0.000005
v 30.000000 30.000000 0.000005
v 30.000000 29.999990 60.000004
v 0.000000 29.999994 30.000006
v 30.000000 59.999996 30.000010
v 60.000000 29.999994 30.000006
v 30.000000 -0.000005 30.000000
v 56.524151 16.573448 10.000003
v 56.524151 20.047449 10.000003
v 53.763252 20.521399 10.000004
v 53.763252 17.047398 10.000003
v 55.143700 18.547421 20.000004
v 55.143700 18.547424 0.000003
v 46.575500 17.549898 10.000003
v 44.786499 24.575697 10.000004
v 47.000000 28.575697 10.000005
v 49.789001 28.049646 10.000005
v 48.578300 27.547348 10.000005
v 47.552551 26.575998 10.000005
v 51.026501 25.575998 10.000004
v 54.549751 26.786699 10.000005
v 53.047401 27.786947 10.000005
v 51.549900 29.073898 10.000005
v 46.552002 30.573898 10.000005
v 42.513000 22.071947 10.000004
v 45.500000 13.044998 10.000002
v 47.539001 13.520899 10.000002
v 38.786499 23.786699 10.000004
v 39.785000 24.047598 10.000004
v 38.545650 24.760897 10.000004
v 37.547150 24.499998 10.000004
v 38.666077 24.273796 20.000004
v 38.666077 24.273800 0.000004
v 38.574051 15.575998 10.000003
v 40.552299 16.547348 10.000003
v 38.552250 17.549948 10.000003
v 36.573997 16.578598 10.000003
v 38.563148 16.562971 20.000002
v 38.563148 16.562975 0.000003
v 27.786701 17.286497 10.000003
v 29.046700 19.762999 10.000003
v 34.546951 25.262999 10.000004
v 29.575949 34.260498 10.000006
v 21.075500 30.545498 10.000005
v 24.573450 24.045897 10.000004
v 28.047850 23.521797 10.000004
v 24.760899 22.260897 10.000004
v 22.286499 20.260649 10.000003
v 25.546501 14.760648 10.000003
v 29.760000 13.786498 10.000002
v 12.049050 13.789298 10.000002
v 6.052050 26.549799 10.000005
v 12.023500 37.047001 10.000006
v 18.521400 31.546499 10.000005
v 13.010900 30.523249 10.000005
v 9.510900 26.024149 10.000004
v 14.521549 18.021547 10.000003
v 17.520649 15.260648 10.000003
vn 0.0000 0.0000 -1.0000
vn 0.9144 -0.4048 0.0000
vn 0.1241 0.9923 0.0000
vn 0.9910 0.1335 0.0000
vn -0.5542 -0.8324 -0.0000
vn 0.9705 -0.2409 -0.0000
vn 0.1929 0.9812 0.0000
vn -0.9920 -0.1265 0.0000
vn 0.1739 0.9848 0.0000
vn 0.9911 -0.1331 -0.0000
vn 0.5706 0.8212 0.0000
vn 0.9677 -0.2521 -0.0000
vn -0.3870 -0.9221 0.0000
vn 0.7950 -0.6066 0.0000
vn -0.2831 0.9591 0.0000
vn 0.9827 -0.1851 -0.0000
vn -0.5200 -0.8542 -0.0000
vn -0.9194 0.3934 0.0000
vn -0.2146 0.9767 0.0000
vn 0.6122 0.7907 0.0000
vn 0.0000 -0.0000 1.0000
vn 1.0000 -0.0040 -0.0000
vn -0.0145 -0.9999 0.0000
vn 0.9996 0.0265 0.0000
vn 0.0013 1.0000 0.0000
vn 0.9987 0.0516 0.0000
vn -0.2273 -0.9738 0.0000
vn -0.9108 -0.4129 0.0000
vn 0.1731 0.9849 0.0000
vn -0.9992 0.0389 0.0000
vn -0.2539 -0.9672 -0.0000
vn -0.9933 -0.1153 -0.0000
vn 0.0000 -1.0000 0.0000
vn -0.9998 0.0187 0.0000
vn 0.1383 -0.9904 -0.0000
vn -0.9998 0.0192 0.0000
vn -0.0007 -1.0000 -0.0000
vn -0.9997 0.0261 0.0000
vn -0.0260 -0.9997 -0.0000
vn 0.9287 -0.3709 -0.0000
vn -0.0008 1.0000 0.0000
vn -0.9812 -0.1930 -0.0000
vn -0.9493 -0.3143 -0.0000
vn 0.6415 0.7671 0.0000
vn 0.7500 -0.6614 -0.0000
vn -0.9274 -0.3740 0.0000
vn 0.7081 -0.7061 -0.0000
vn 0.0000 1.0000 0.0000
vn -1.0000 0.0000 0.0000
vn 1.0000 0.0000 0.0000
vn -0.9274 -0.3741 -0.0000
usemtl Default_OBJ.015
s off
f 8//1 100//1 7//1 101//1 6//1 102//1 5//1 103//1 4//1 104//1 3//1 105//1 2//1 106//1 1//1 99//1
f 16//1 108//1 15//1 109//1 14//1 110//1 13//1 111//1 12//1 112//1 11//1 113//1 10//1 114//1 9//1 107//1
f 302//2 116//2 10//2 114//2
f 301//3 117//3 11//3 113//3
f 300//4 118//4 12//4 112//4
f 299//5 119//5 13//5 111//5
f 298//6 120//6 14//6 110//6
f 297//7 121//7 15//7 109//7
f 296//8 122//8 16//8 108//8
f 295//9 122//9 16//9 107//9
f 17//1 124//1 18//1 125//1 19//1 126//1 20//1 127//1 21//1 128//1 22//1 129//1 23//1 130//1 24//1 131//1 25//1 132//1 26//1 133//1 27//1 123//1
f 28//1 135//1 29//1 136//1 30//1 137//1 31//1 138//1 32//1 139//1 33//1 140//1 34//1 141//1 35//1 142//1 36//1 143//1 37//1 144//1 38//1 134//1
f 294//10 146//10 18//10 124//10
f 293//11 147//11 30//11 136//11
f 292//12 148//12 31//12 137//12
f 291//13 149//13 32//13 138//13
f 290//14 150//14 33//14 139//14
f 289//15 151//15 34//15 140//15
f 288//16 152//16 35//16 141//16
f 287//17 153//17 36//17 142//17
f 286//18 154//18 37//18 143//18
f 285//19 155//19 38//19 144//19
f 284//20 155//20 38//20 134//20
f 283//1 158//1 41//1 159//1
f 282//21 162//21 44//21 163//21
f 281//22 165//22 44//22 163//22
f 280//23 166//23 45//23 162//23
f 279//24 167//24 42//24 159//24
f 278//25 167//25 42//25 156//25
f 277//1 170//1 49//1 171//1
f 276//1 174//1 53//1 175//1
f 275//26 177//26 52//26 173//26
f 274//27 178//27 53//27 174//27
f 273//28 179//28 54//28 175//28
f 272//29 179//29 50//29 168//29
f 55//1 181//1 56//1 182//1 57//1 183//1 58//1 184//1 59//1 185//1 60//1 186//1 61//1 187//1 62//1 188//1 63//1 189//1 64//1 190//1 65//1 191//1 66//1 192//1 67//1 193//1 68//1 180//1
f 82//21 195//21 81//21 196//21 80//21 197//21 79//21 198//21 78//21 199//21 77//21 200//21 76//21 201//21 75//21 202//21 74//21 203//21 73//21 204//21 72//21 205//21 71//21 206//21 70//21 207//21 69//21 194//21
f 271//30 209//30 70//30 207//30
f 270//31 210//31 57//31 182//31
f 269//32 211//32 58//32 183//32
f 268//33 212//33 73//33 204//33
f 267//34 213//34 74//34 203//34
f 266//35 214//35 75//35 202//35
f 265//36 215//36 76//36 201//36
f 264//37 216//37 63//37 188//37
f 263//38 217//38 64//38 189//38
f 262//39 218//39 79//39 198//39
f 261//40 219//40 80//40 197//40
f 260//41 220//41 81//41 196//41
f 259//42 221//42 82//42 195//42
f 258//43 221//43 68//43 180//43
f 257//1 224//1 85//1 225//1
f 256//21 228//21 88//21 229//21
f 255//44 231//44 88//44 229//44
f 254//45 232//45 89//45 228//45
f 253//46 233//46 90//46 227//46
f 252//47 233//47 90//47 226//47
f 251//48 236//48 93//48 237//48
f 250//49 239//49 96//49 240//49
f 249//33 242//33 98//33 243//33
f 248//50 234//50 94//50 245//50
f 247//1 235//1 91//1 244//1
f 246//21 240//21 96//21 243//21
f 245//21 246//21 243//21 98//21
f 94//21 237//21 246//21 245//21
f 237//21 93//21 240//21 246//21
f 241//1 247//1 244//1 97//1
f 95//1 238//1 247//1 241//1
f 238//1 92//1 235//1 247//1
f 242//50 248//50 245//50 98//50
f 97//50 244//50 248//50 242//50
f 244//50 91//50 234//50 248//50
f 239//33 249//33 243//33 96//33
f 95//33 241//33 249//33 239//33
f 241//33 97//33 242//33 249//33
f 236//49 250//49 240//49 93//49
f 92//49 238//49 250//49 236//49
f 238//49 95//49 239//49 250//49
f 234//48 251//48 237//48 94//48
f 91//48 235//48 251//48 234//48
f 235//48 92//48 236//48 251//48
f 230//47 252//47 226//47 87//47
f 83//47 222//47 252//47 230//47
f 222//47 86//47 233//47 252//47
f 232//46 253//46 227//46 89//46
f 85//51 225//51 253//51 232//51
f 225//46 86//46 233//46 253//46
f 231//45 254//45 228//45 88//45
f 84//45 224//45 254//45 231//45
f 224//45 85//45 232//45 254//45
f 230//44 255//44 229//44 87//44
f 83//44 223//44 255//44 230//44
f 223//44 84//44 231//44 255//44
f 226//21 256//21 229//21 87//21
f 90//21 227//21 256//21 226//21
f 227//21 89//21 228//21 256//21
f 222//1 257//1 225//1 86//1
f 83//1 223//1 257//1 222//1
f 223//1 84//1 224//1 257//1
f 208//43 258//43 180//43 55//43
f 69//43 194//43 258//43 208//43
f 194//43 82//43 221//43 258//43
f 220//42 259//42 195//42 81//42
f 67//42 193//42 259//42 220//42
f 193//42 68//42 221//42 259//42
f 219//41 260//41 196//41 80//41
f 66//41 192//41 260//41 219//41
f 192//41 67//41 220//41 260//41
f 218//40 261//40 197//40 79//40
f 65//40 191//40 261//40 218//40
f 191//40 66//40 219//40 261//40
f 217//39 262//39 198//39 78//39
f 64//39 190//39 262//39 217//39
f 190//39 65//39 218//39 262//39
f 216//38 263//38 189//38 63//38
f 77//38 199//38 263//38 216//38
f 199//38 78//38 217//38 263//38
f 215//37 264//37 188//37 62//37
f 76//37 200//37 264//37 215//37
f 200//37 77//37 216//37 264//37
f 214//36 265//36 201//36 75//36
f 61//36 187//36 265//36 214//36
f 187//36 62//36 215//36 265//36
f 213//35 266//35 202//35 74//35
f 60//35 186//35 266//35 213//35
f 186//35 61//35 214//35 266//35
f 212//34 267//34 203//34 73//34
f 59//34 185//34 267//34 212//34
f 185//34 60//34 213//34 267//34
f 211//33 268//33 204//33 72//33
f 58//33 184//33 268//33 211//33
f 184//33 59//33 212//33 268//33
f 210//32 269//32 183//32 57//32
f 71//32 205//32 269//32 210//32
f 205//32 72//32 211//32 269//32
f 209//31 270//31 182//31 56//31
f 70//31 206//31 270//31 209//31
f 206//31 71//31 210//31 270//31
f 208//30 271//30 207//30 69//30
f 55//30 181//30 271//30 208//30
f 181//30 56//30 209//30 271//30
f 176//29 272//29 168//29 47//29
f 51//29 172//29 272//29 176//29
f 172//29 54//29 179//29 272//29
f 178//28 273//28 175//28 53//28
f 49//28 171//28 273//28 178//28
f 171//28 50//28 179//28 273//28
f 177//27 274//27 174//27 52//27
f 48//27 170//27 274//27 177//27
f 170//27 49//27 178//27 274//27
f 176//26 275//26 173//26 51//26
f 47//26 169//26 275//26 176//26
f 169//26 48//26 177//26 275//26
f 172//1 276//1 175//1 54//1
f 51//1 173//1 276//1 172//1
f 173//1 52//1 174//1 276//1
f 168//1 277//1 171//1 50//1
f 47//1 169//1 277//1 168//1
f 169//1 48//1 170//1 277//1
f 164//25 278//25 156//25 39//25
f 43//25 160//25 278//25 164//25
f 160//25 46//25 167//25 278//25
f 166//24 279//24 159//24 41//24
f 45//24 161//24 279//24 166//24
f 161//24 46//24 167//24 279//24
f 165//23 280//23 162//23 44//23
f 40//23 158//23 280//23 165//23
f 158//23 41//23 166//23 280//23
f 164//22 281//22 163//22 43//22
f 39//22 157//22 281//22 164//22
f 157//22 40//22 165//22 281//22
f 160//21 282//21 163//21 43//21
f 46//21 161//21 282//21 160//21
f 161//21 45//21 162//21 282//21
f 156//1 283//1 159//1 42//1
f 39//1 157//1 283//1 156//1
f 157//1 40//1 158//1 283//1
f 145//20 284//20 134//20 28//20
f 17//20 123//20 284//20 145//20
f 123//20 27//20 155//20 284//20
f 154//19 285//19 144//19 37//19
f 26//19 133//19 285//19 154//19
f 133//19 27//19 155//19 285//19
f 153//18 286//18 143//18 36//18
f 25//18 132//18 286//18 153//18
f 132//18 26//18 154//18 286//18
f 152//17 287//17 142//17 35//17
f 24//17 131//17 287//17 152//17
f 131//17 25//17 153//17 287//17
f 151//16 288//16 141//16 34//16
f 23//16 130//16 288//16 151//16
f 130//16 24//16 152//16 288//16
f 150//15 289//15 140//15 33//15
f 22//15 129//15 289//15 150//15
f 129//15 23//15 151//15 289//15
f 149//14 290//14 139//14 32//14
f 21//14 128//14 290//14 149//14
f 128//14 22//14 150//14 290//14
f 148//13 291//13 138//13 31//13
f 20//13 127//13 291//13 148//13
f 127//13 21//13 149//13 291//13
f 147//12 292//12 137//12 30//12
f 19//12 126//12 292//12 147//12
f 126//12 20//12 148//12 292//12
f 146//11 293//11 136//11 29//11
f 18//11 125//11 293//11 146//11
f 125//11 19//11 147//11 293//11
f 145//10 294//10 124//10 17//10
f 28//10 135//10 294//10 145//10
f 135//10 29//10 146//10 294//10
f 115//9 295//9 107//9 9//9
f 1//9 99//9 295//9 115//9
f 99//9 8//9 122//9 295//9
f 121//8 296//8 108//8 15//8
f 7//8 100//8 296//8 121//8
f 100//8 8//8 122//8 296//8
f 120//7 297//7 109//7 14//7
f 6//7 101//7 297//7 120//7
f 101//7 7//7 121//7 297//7
f 119//6 298//6 110//6 13//6
f 5//6 102//6 298//6 119//6
f 102//6 6//6 120//6 298//6
f 118//5 299//5 111//5 12//5
f 4//5 103//5 299//5 118//5
f 103//5 5//5 119//5 299//5
f 117//4 300//4 112//4 11//4
f 3//4 104//4 300//4 117//4
f 104//4 4//4 118//4 300//4
f 116//3 301//3 113//3 10//3
f 2//3 105//3 301//3 116//3
f 105//3 3//3 117//3 301//3
f 115//2 302//2 114//2 9//2
f 1//2 106//2 302//2 115//2
f 106//2 2//2 116//2 302//2
