# Blender v2.78 (sub 0) OBJ File: 'bsp_simple_test.blend'
# www.blender.org
mtllib bsp_simple_test.mtl
o Plane.002_Plane.003
v 1.568219 -0.436063 -7.804473
v 1.725047 -2.394875 -7.432366
v 1.945559 -0.773416 -9.739366
v 2.102386 -2.732227 -9.367259
vn 0.9789 0.1110 0.1716
usemtl None
s off
f 1//1 2//1 4//1 3//1
o Plane.001_Plane.002
v 0.765581 -1.414277 -7.618473
v 2.765581 -1.414277 -7.618473
v 0.765581 -1.414277 -9.618473
v 2.765581 -1.414277 -9.618473
vn 0.0000 1.0000 0.0000
usemtl None
s off
f 5//2 6//2 8//2 7//2
o Cube_Cube.001
v 0.820107 -3.029145 -8.591985
v 0.820107 -1.029145 -8.591985
v 0.820107 -3.029145 -10.591985
v 0.820107 -1.029145 -10.591985
v 2.820107 -3.029145 -8.591985
v 2.820107 -1.029145 -8.591985
v 2.820107 -3.029145 -10.591985
v 2.820107 -1.029145 -10.591985
vn -1.0000 0.0000 0.0000
vn 0.0000 0.0000 -1.0000
vn 1.0000 0.0000 0.0000
vn 0.0000 0.0000 1.0000
vn 0.0000 -1.0000 0.0000
vn 0.0000 1.0000 0.0000
usemtl None
s off
f 9//3 10//3 12//3 11//3
f 11//4 12//4 16//4 15//4
f 15//5 16//5 14//5 13//5
f 13//6 14//6 10//6 9//6
f 11//7 15//7 13//7 9//7
f 16//8 12//8 10//8 14//8
o Plane_Plane.001
v -6.163232 0.591114 18.823830
v -4.163232 0.591114 18.823830
v -6.163232 0.591114 16.823830
v -4.163232 0.591114 16.823830
vn 0.0000 1.0000 0.0000
usemtl None
s off
f 17//9 18//9 20//9 19//9
