# Blender v2.78 (sub 0) OBJ File: 'bsp_simple_test.blend'
# www.blender.org
mtllib bsp_simple_test.mtl
o Plane
v -1.807931 -0.151987 -1.007829
v 0.496080 -0.151987 -1.007829
v -1.807931 2.152024 -1.007829
v 0.496080 2.152024 -1.007829
vn 0.0000 0.0000 1.0000
usemtl None
s off
f 1//1 2//1 4//1 3//1
o Plane.001
v -1.807931 -0.151987 0.635298
v 0.496080 -0.151987 0.635298
v -1.807931 2.152024 0.635298
v 0.496080 2.152024 0.635298
vn 0.0000 -0.0000 1.0000
usemtl None
s off
f 5//2 6//2 8//2 7//2
o Plane.002
v -0.006081 1.560447 0.411533
v -1.283427 -0.357066 0.411533
v -0.006082 1.560447 2.715544
v -1.283428 -0.357065 2.715544
vn -0.8322 0.5544 -0.0000
usemtl None
s off
f 9//3 10//3 12//3 11//3
o Plane.003
v -1.995914 1.342173 0.134501
v -1.995914 1.342173 -2.169510
v -1.995915 -0.961838 0.134501
v -1.995916 -0.961838 -2.169510
vn -1.0000 0.0000 0.0000
usemtl None
s off
f 13//4 14//4 16//4 15//4
